<svg width="138" height="35" viewBox="0 0 138 35" fill="none" xmlns="http://www.w3.org/2000/svg">
<path d="M37.528 8.2H49C49.992 8.712 50.488 9.592 50.488 10.84V17.128C50.488 17.4 47.96 18.824 42.904 21.4V16.936C44.168 16.36 45.216 15.68 46.048 14.896V12.064H41.608V24.856L37.528 27.496V8.2ZM55.483 24.856L51.403 27.496V8.344L55.483 12.232V24.856ZM62.875 8.2C63.867 8.712 64.363 9.592 64.363 10.84V17.128C64.363 17.4 61.835 18.824 56.779 21.4V16.936C58.043 16.36 59.091 15.68 59.923 14.896V12.064H56.083L51.931 8.2H62.875ZM53.299 17.8L53.995 13.552L63.979 25C62.907 25.784 61.747 26.584 60.499 27.4L53.299 17.8ZM68.038 8.2H80.374V22.888C80.118 24.2 79.486 24.856 78.478 24.856H73.342L74.35 25L72.958 24.856H72.598L64.99 17.008H66.694V9.952C66.694 9.216 67.142 8.632 68.038 8.2ZM71.446 12.112V17.008H72.958L69.55 20.752H76.126L75.622 20.944H75.814V12.112H71.446ZM91.9596 25.024L81.6876 27.4L83.0796 22.6L87.6396 21.496L87.6636 8.224H91.9596V25.024ZM93.0481 8.2H102.432L105.96 12.016H97.5361V13.816H100.488L103.8 17.632H97.5361V21.04H102.24L105.768 24.856H93.0481V8.2ZM106.411 8.2H117.619C118.579 8.2 119.179 8.944 119.419 10.432V15.088H115.075V12.04H110.563V21.352H116.899L113.635 25.192H108.043C107.131 25.192 106.587 24.52 106.411 23.176V8.2ZM120.406 8.2H130.582L133.678 12.088H128.734V24.376L125.038 27.496V12.088H120.406V8.2Z" fill="#E9E9E9"/>
<path d="M9.40624 14.8021C12.3863 14.8021 14.8021 12.3863 14.8021 9.40624C14.8021 6.4262 12.3863 4.01041 9.40624 4.01041C6.4262 4.01041 4.01041 6.4262 4.01041 9.40624C4.01041 12.3863 6.4262 14.8021 9.40624 14.8021Z" stroke="#66FC6C" stroke-width="3" stroke-linecap="round" stroke-linejoin="round"/>
<path d="M9.40624 30.9896C12.3863 30.9896 14.8021 28.5738 14.8021 25.5937C14.8021 22.6137 12.3863 20.1979 9.40624 20.1979C6.4262 20.1979 4.01041 22.6137 4.01041 25.5937C4.01041 28.5738 6.4262 30.9896 9.40624 30.9896Z" stroke="#66FC6C" stroke-width="3" stroke-linecap="round" stroke-linejoin="round"/>
<path d="M25.5937 30.9896C28.5738 30.9896 30.9896 28.5738 30.9896 25.5937C30.9896 22.6137 28.5738 20.1979 25.5937 20.1979C22.6137 20.1979 20.1979 22.6137 20.1979 25.5937C20.1979 28.5738 22.6137 30.9896 25.5937 30.9896Z" stroke="#66FC6C" stroke-width="3" stroke-linecap="round" stroke-linejoin="round"/>
<path d="M30.2189 4.78116L20.9687 14.0314M30.2189 14.0314L20.9687 4.78116" stroke="#45A254" stroke-width="3" stroke-linecap="round" stroke-linejoin="round"/>
</svg>
